# xmcd
#
# Track frame offsets:
#	150
#	4564
#	10655
#	15817
#	20180
#	24825
#	31012
#	59622
#	64026
#	70080
#	78504
#	127415
#	134297
#	139389
#	145527
#	153350
#	208877
#	217607
#	224237
#	229477
#	235828
#	276867
#	284033
#
# Disc length: 3867 seconds
#
# Revision: 0
# Processed by: cddbd v1.5.1PL0 Copyright (c) Steve Scherf et al.
# Submitted via: EasyCDDAExtractor 4.6.9.1
#
DISCID=500f1917
DTITLE=Ross Nickerson - Scruggs Style Instruction CD1
DYEAR=1900
DGENRE=Bluegrass
TTITLE0=Lonesome Road Blues
TTITLE1=Little Darlin Pal' of Mine
TTITLE2=Fireball Mail
TTITLE3=Ground Speed
TTITLE4=Sally Goodin'
TTITLE5=Foggy Mountain Breakdown
TTITLE6=Spoken Introduction
TTITLE7=Lonesome Road Blues-fast
TTITLE8=Lonesome Road Blues-slow
TTITLE9=Tuning
TTITLE10=Lonesome Road Blues-instruction
TTITLE11=Lonesome Road Blues-rhythm slow
TTITLE12=Lonesome Road Blues-rhythm fast
TTITLE13=Little Darlin Pal' of Mine-fast
TTITLE14=Little Darlin Pal' of Mine-slow
TTITLE15=Little Darlin Pal' of Mine-instruction
TTITLE16=Little Darlin Pal' of Mine-rhythm slow
TTITLE17=Little Darlin Pal' of Mine-rhythm fast
TTITLE18=Fireball Mail-fast
TTITLE19=Fireball Mail-slow
TTITLE20=Fireball Mail-instruction
TTITLE21=Fireball Mail-rhythm slow
TTITLE22=Fireball Mail-rhythm fast
EXTD=
EXTT0=
EXTT1=
EXTT2=
EXTT3=
EXTT4=
EXTT5=
EXTT6=
EXTT7=
EXTT8=
EXTT9=
EXTT10=
EXTT11=
EXTT12=
EXTT13=
EXTT14=
EXTT15=
EXTT16=
EXTT17=
EXTT18=
EXTT19=
EXTT20=
EXTT21=
EXTT22=
PLAYORDER=
